<svg id="Camada_1" data-name="Camada 1" xmlns="http://www.w3.org/2000/svg" xmlns:xlink="http://www.w3.org/1999/xlink" viewBox="0 0 273.66 75.95"><defs><style>.cls-1{fill:url(#Gradiente_sem_nome_174);}.cls-2{fill:#fff;}.cls-3{fill:none;stroke:#fff;}.cls-4{fill-rule:evenodd;fill:url(#Gradiente_sem_nome_191);}</style><linearGradient id="Gradiente_sem_nome_174" x1="65.59" y1="72.34" x2="67.78" y2="23.82" gradientTransform="matrix(1, 0, 0, -1, 0, 86)" gradientUnits="userSpaceOnUse"><stop offset="0.25" stop-color="#fff"/><stop offset="0.9" stop-color="#fff"/></linearGradient><linearGradient id="Gradiente_sem_nome_191" x1="145.5" y1="45" x2="145.5" y2="10" gradientUnits="userSpaceOnUse"><stop offset="0" stop-color="#fff"/><stop offset="1" stop-color="#fff"/></linearGradient></defs><path class="cls-1" d="M11.74,45.87a13.45,13.45,0,0,1-4.15-.61,9.17,9.17,0,0,1-3.18-1.71,7.59,7.59,0,0,1-2.09-2.67,8.22,8.22,0,0,1-.7-3.43,8.7,8.7,0,0,1,.49-3,7.48,7.48,0,0,1,1.43-2.44,6.47,6.47,0,0,1,2.13-1.59,5.88,5.88,0,0,1,2.58-.59,4.62,4.62,0,0,1,2.84.85,3.61,3.61,0,0,1,1.43,2.32,5.73,5.73,0,0,0-4,1.33,4.46,4.46,0,0,0-1.1,1.55,5.27,5.27,0,0,0-.38,2A4.6,4.6,0,0,0,8.27,41.3a4.57,4.57,0,0,0,3.33,1.22,6,6,0,0,0,2.32-.45A5.83,5.83,0,0,0,15.8,40.8,5.5,5.5,0,0,0,17,38.91a6.58,6.58,0,0,0,.44-2.39,9.19,9.19,0,0,0-1.59-4.88,18.16,18.16,0,0,0-1.41-1.92c-.5-.64-1.2-1.49-2.11-2.53s-1.49-1.75-2-2.44a20.54,20.54,0,0,1-1.47-2.11,9.69,9.69,0,0,1-1.6-5.11A7.66,7.66,0,0,1,8,14.06a8.37,8.37,0,0,1,2.27-2.81A11,11,0,0,1,13.76,9.4,13.22,13.22,0,0,1,18,8.74a9.8,9.8,0,0,1,6.21,1.83,5.93,5.93,0,0,1,1.71,2.13,6.16,6.16,0,0,1,.61,2.77,5,5,0,0,1-1,3.26,3,3,0,0,1-1.17.93A3.28,3.28,0,0,1,22.9,20,3.5,3.5,0,0,1,20,18.49a4.5,4.5,0,0,0,1.43-1.73,5.29,5.29,0,0,0,.54-2.35A3.23,3.23,0,0,0,21,12a3.38,3.38,0,0,0-2.5-.92,4.61,4.61,0,0,0-1.79.35,3.75,3.75,0,0,0-1.35,1A4.72,4.72,0,0,0,14.46,14a6,6,0,0,0-.3,1.94,6.29,6.29,0,0,0,.7,2.89,14.23,14.23,0,0,0,2,2.88c.78.92,1.62,1.84,2.53,2.74a21.36,21.36,0,0,1,4.47,6.4,10.38,10.38,0,0,1,.78,4.08,10,10,0,0,1-1,4.36A10.42,10.42,0,0,1,21,42.73a12.92,12.92,0,0,1-4.15,2.32A15.47,15.47,0,0,1,11.74,45.87ZM35.39,18.4a3.66,3.66,0,0,1-2.69-1.1,3.51,3.51,0,0,1-.82-1.2,3.9,3.9,0,0,1,0-3,4,4,0,0,1,.82-1.24,3.33,3.33,0,0,1,1.21-.82,3.69,3.69,0,0,1,3,0,3.53,3.53,0,0,1,1.24.82,3.68,3.68,0,0,1,.82,1.24,3.78,3.78,0,0,1,0,3,3.25,3.25,0,0,1-.82,1.2,4.39,4.39,0,0,1-1.24.82A4.1,4.1,0,0,1,35.39,18.4ZM32.13,45.28a4.84,4.84,0,0,1-3.63-1.36A5.93,5.93,0,0,1,27,39.54a14.82,14.82,0,0,1,.38-3.14L30.63,21h6.92L34.1,37.31a5.55,5.55,0,0,0-.19,1.55,1.76,1.76,0,0,0,.45,1.38,2.26,2.26,0,0,0,1.5.4,3.24,3.24,0,0,0,1.36-.3,4.64,4.64,0,0,0,1.24-.89A7.37,7.37,0,0,0,40.2,36.4h2A17.25,17.25,0,0,1,39,42.19a9.8,9.8,0,0,1-3.71,2.53A9,9,0,0,1,32.13,45.28Zm37.27,0A5.45,5.45,0,0,1,65,43.59a5.52,5.52,0,0,1-1.24-3.72A14.55,14.55,0,0,1,64,37.36c.19-1,.46-2.18.82-3.68s.62-2.75.79-3.66a12.13,12.13,0,0,0,.29-2.39q0-2.46-1.74-2.46a2.91,2.91,0,0,0-2.25,1.29,9.78,9.78,0,0,0-1.5,3.14L57.16,45H50.25l3.52-16.57a5.13,5.13,0,0,0,.14-1.2,2.92,2.92,0,0,0-.31-1.47,1.28,1.28,0,0,0-1.15-.64,2.92,2.92,0,0,0-2.36,1.32,9.59,9.59,0,0,0-1.53,3.16L45.3,45H38.39l5.09-24h6.91l-.51,2.48A8.18,8.18,0,0,1,53,21.26a7.78,7.78,0,0,1,2.78-.49A5.11,5.11,0,0,1,59,21.7a5,5,0,0,1,1.71,3.19,9.07,9.07,0,0,1,3.56-3.37,6.94,6.94,0,0,1,3.12-.71,5.47,5.47,0,0,1,3.82,1.27,5.36,5.36,0,0,1,1.5,4.15,22.44,22.44,0,0,1-.59,4.33c-.16.77-.34,1.54-.56,2.32-.39,1.5-.71,2.89-1,4.15a8.58,8.58,0,0,0-.19,1.59,2.35,2.35,0,0,0,.42,1.5,1.88,1.88,0,0,0,1.5.52,3.06,3.06,0,0,0,2.42-1.17,11.89,11.89,0,0,0,1.61-3.07h2c-1.19,3.51-2.69,6-4.5,7.38A7,7,0,0,1,69.4,45.28ZM80,19.22h6.91l-.77,3.61a8.38,8.38,0,0,1,5.6-2.06,5.29,5.29,0,0,1,4.17,1.64c1.13,1.28,1.69,3.25,1.69,5.93a26.21,26.21,0,0,1-1,7.26A15.55,15.55,0,0,1,93,42.33a9.73,9.73,0,0,1-7.22,3A6.38,6.38,0,0,1,83,44.77a3,3,0,0,1-1.34-1.2L79.2,55.27,72,57Zm4.31,21.89a4.81,4.81,0,0,0,4-2.37,15.35,15.35,0,0,0,2.11-5.2A23.44,23.44,0,0,0,91,28.2a5.18,5.18,0,0,0-.87-3.38,2,2,0,0,0-1.55-.61,3.07,3.07,0,0,0-1.75.61,5.17,5.17,0,0,0-1.55,1.76L82.45,40a1.67,1.67,0,0,0,.61.79A2.17,2.17,0,0,0,84.28,41.11Zm19.24,4.17a4.84,4.84,0,0,1-3.63-1.36,5.93,5.93,0,0,1-1.5-4.38,15.5,15.5,0,0,1,.38-3.14l5.13-24,7.1-1-5.51,25.92a5.59,5.59,0,0,0-.18,1.55,1.76,1.76,0,0,0,.44,1.38,2.26,2.26,0,0,0,1.5.4,3.24,3.24,0,0,0,1.36-.3,4.64,4.64,0,0,0,1.24-.89,7.37,7.37,0,0,0,1.74-3.05h2a17.25,17.25,0,0,1-3.23,5.79,9.8,9.8,0,0,1-3.71,2.53A9,9,0,0,1,103.52,45.28Zm15,0A7.72,7.72,0,0,1,113,43.5c-1.36-1.27-2-3.21-2-5.84a20.26,20.26,0,0,1,.3-3.28,24,24,0,0,1,.87-3.61A22.06,22.06,0,0,1,113.81,27a15.75,15.75,0,0,1,2.39-3.18,10.44,10.44,0,0,1,7.74-3.19A5.67,5.67,0,0,1,128.2,22a4.5,4.5,0,0,1,1,3.19,8.53,8.53,0,0,1-.89,3.85,10.32,10.32,0,0,1-2.46,3.16,12.75,12.75,0,0,1-3.56,2.18,13.63,13.63,0,0,1-4.13.94c-.07.81-.11,1.45-.11,1.92a4.55,4.55,0,0,0,.89,3.23,3.48,3.48,0,0,0,2.58.8,8.54,8.54,0,0,0,4.76-1.41,12.31,12.31,0,0,0,1.75-1.38c.56-.55,1.22-1.23,2-2.06h1.64a21.22,21.22,0,0,1-5.23,6.12A12.85,12.85,0,0,1,118.48,45.28ZM118.57,33a6.39,6.39,0,0,0,2.6-.77,8.23,8.23,0,0,0,2.25-1.78A8.92,8.92,0,0,0,125,27.94a7.74,7.74,0,0,0,.56-2.86,3,3,0,0,0-.28-1.46.93.93,0,0,0-.91-.51,2.6,2.6,0,0,0-1.76.84,10.32,10.32,0,0,0-1.69,2.32,21.93,21.93,0,0,0-1.36,3.14A26.4,26.4,0,0,0,118.57,33Z" transform="translate(-1.62 -8.74)"/><path class="cls-2" d="M186.15,20.36V14.2H162.7V45h6.78V33.08h14.69V26.92H169.48V20.36ZM205.08,28V21c-4-.18-6.16,1.93-7.52,5.19V21.42h-6.69V45h6.69V36.29c0-5.63,2.73-8.32,7.17-8.32Zm25.54,5.9v-.09c0-6.69-3.61-12.8-11.49-12.8-6.86,0-11.66,5.54-11.66,12.27v.09c0,7.22,5.24,12.19,12.32,12.19a11.79,11.79,0,0,0,9.64-4.4l-3.83-3.39a7.72,7.72,0,0,1-5.72,2.42,5.46,5.46,0,0,1-5.76-4.62h16.41C230.57,34.92,230.62,34.53,230.62,33.87Zm-6.52-2.51H214c.53-3,2.33-5,5.1-5S223.71,28.37,224.1,31.36ZM248.85,44V38.66a6.8,6.8,0,0,1-3.31.84c-1.49,0-2.15-.75-2.15-2.29V27.14h5.54V21.42h-5.54v-6H236.7v6h-2.82v5.72h2.82V38.31c0,5.46,2.77,7.09,6.87,7.09A9.84,9.84,0,0,0,248.85,44Zm26.37-10.16v-.09c0-6.69-3.61-12.8-11.49-12.8-6.86,0-11.66,5.54-11.66,12.27v.09c0,7.22,5.24,12.19,12.32,12.19a11.79,11.79,0,0,0,9.64-4.4l-3.83-3.39a7.71,7.71,0,0,1-5.72,2.42,5.46,5.46,0,0,1-5.76-4.62h16.41C275.17,34.92,275.22,34.53,275.22,33.87Zm-6.51-2.51H258.63c.53-3,2.33-5,5.1-5S268.31,28.37,268.71,31.36Z" transform="translate(-1.62 -8.74)"/><path class="cls-3" d="M130,37.5c2-2.5,5-3.5,7.5,1,1.94,3.5,4,7,8,5.5" transform="translate(-1.62 -8.74)"/><path class="cls-4" d="M157,21.5a11.5,11.5,0,0,0-23,0,14.55,14.55,0,0,0,2.6,7.93L145.5,45l10-17.5h0A13.47,13.47,0,0,0,157,21.5ZM145.5,27a5.5,5.5,0,1,1,5.5-5.5A5.5,5.5,0,0,1,145.5,27Z" transform="translate(-1.62 -8.74)"/><path class="cls-2" d="M6.25,80H2.47L7.38,65.45h4.68L17,80H13.19L9.77,69.12H9.66Zm-.51-5.72h7.9V77H5.74ZM32.21,80H26.83V65.45H32.2a7.94,7.94,0,0,1,3.83.88,6,6,0,0,1,2.48,2.5,8,8,0,0,1,.88,3.89,8.09,8.09,0,0,1-.88,3.91A5.9,5.9,0,0,1,36,79.13,8,8,0,0,1,32.21,80Zm-1.86-3h1.72a4.6,4.6,0,0,0,2.07-.41,2.66,2.66,0,0,0,1.28-1.36,5.89,5.89,0,0,0,.44-2.51,5.81,5.81,0,0,0-.44-2.5,2.72,2.72,0,0,0-1.3-1.35,4.68,4.68,0,0,0-2.1-.42H30.35ZM49.74,65.45h4.35l3.7,9H58l3.69-9H66V80H62.58V71.07h-.12L59,79.91H56.78L53.28,71h-.12v9H49.74Zm30.27,0V80H76.5V65.45Zm22.89,0V80h-3l-5.79-8.39H94V80H90.52V65.45h3l5.72,8.39h.12V65.45Zm14,0V80h-3.52V65.45Zm18.36,4.37a1.6,1.6,0,0,0-.63-1.22,2.52,2.52,0,0,0-1.58-.44,3.1,3.1,0,0,0-1.14.18,1.48,1.48,0,0,0-.68.49,1.15,1.15,0,0,0-.23.7,1.1,1.1,0,0,0,.12.58,1.63,1.63,0,0,0,.43.44,3.31,3.31,0,0,0,.68.32,6.1,6.1,0,0,0,.9.25l1.25.29a8.47,8.47,0,0,1,1.9.62,5.11,5.11,0,0,1,1.39.93,3.6,3.6,0,0,1,.86,1.24,4.2,4.2,0,0,1,.3,1.58,4.12,4.12,0,0,1-.7,2.37,4.38,4.38,0,0,1-2,1.51,8.21,8.21,0,0,1-3.1.52,8.54,8.54,0,0,1-3.18-.54A4.51,4.51,0,0,1,127.79,78a5.15,5.15,0,0,1-.78-2.82h3.37a2.17,2.17,0,0,0,.38,1.17,2,2,0,0,0,.91.71,3.64,3.64,0,0,0,1.37.24,3.28,3.28,0,0,0,1.2-.19,1.83,1.83,0,0,0,.78-.53,1.24,1.24,0,0,0,.27-.79,1.09,1.09,0,0,0-.25-.7,1.91,1.91,0,0,0-.77-.51,8.22,8.22,0,0,0-1.31-.41l-1.51-.35a6.63,6.63,0,0,1-3-1.4,3.36,3.36,0,0,1-1.08-2.63,4,4,0,0,1,.72-2.36,4.86,4.86,0,0,1,2-1.59,7.39,7.39,0,0,1,3-.56,7,7,0,0,1,2.93.57,4.53,4.53,0,0,1,1.94,1.6,4.28,4.28,0,0,1,.7,2.39Zm13.17-1.51V65.45h12.29v2.86h-4.41V80h-3.46V68.31ZM170.77,80V65.45h6a6.31,6.31,0,0,1,2.82.59,4.28,4.28,0,0,1,1.84,1.68,4.94,4.94,0,0,1,.64,2.58,4.77,4.77,0,0,1-.66,2.57,4.14,4.14,0,0,1-1.87,1.6,6.88,6.88,0,0,1-2.88.55h-3.8V72.25H176a3.92,3.92,0,0,0,1.33-.2,1.7,1.7,0,0,0,.81-.64,2,2,0,0,0,.28-1.11,2,2,0,0,0-.28-1.12,1.57,1.57,0,0,0-.81-.66,3.3,3.3,0,0,0-1.33-.23h-1.73V80ZM179,73.35,182.58,80h-3.83l-3.55-6.65ZM195.46,80h-3.78l4.91-14.55h4.68L206.18,80H202.4L199,69.12h-.11Zm-.5-5.72h7.89V77H195Zm33.6-3.56H225a3,3,0,0,0-.29-1,2.44,2.44,0,0,0-.58-.76,2.64,2.64,0,0,0-.86-.47,3.49,3.49,0,0,0-2.91.35,3.27,3.27,0,0,0-1.18,1.5,6.18,6.18,0,0,0-.4,2.37,6.43,6.43,0,0,0,.41,2.43,3,3,0,0,0,3,2,3.53,3.53,0,0,0,1.06-.15,2.59,2.59,0,0,0,.84-.44,2.29,2.29,0,0,0,.61-.7,2.83,2.83,0,0,0,.33-.94l3.55,0a5.37,5.37,0,0,1-.56,1.9,6,6,0,0,1-1.27,1.71,6,6,0,0,1-2,1.22,7.75,7.75,0,0,1-6.2-.41,6.28,6.28,0,0,1-2.46-2.54,8.46,8.46,0,0,1-.9-4.06,8.36,8.36,0,0,1,.92-4.07,6.26,6.26,0,0,1,2.48-2.54,7.06,7.06,0,0,1,3.5-.86,8,8,0,0,1,2.44.36,6.1,6.1,0,0,1,2,1.07,5.26,5.26,0,0,1,1.38,1.71A6.09,6.09,0,0,1,228.56,70.72Zm-7.22,9.2h1.39l-.11.64a2.26,2.26,0,0,1,1.25.56,1.6,1.6,0,0,1,.47,1.18,2,2,0,0,1-1.05,1.75,5.69,5.69,0,0,1-2.95.64l0-1.42a4.26,4.26,0,0,0,1.51-.22.76.76,0,0,0,.55-.67.7.7,0,0,0-.32-.66,2.48,2.48,0,0,0-1.05-.34Zm20.31.08h-3.78l4.91-14.55h4.68L252.37,80h-3.78l-3.42-10.88h-.11Zm-.51-5.72H249V77h-7.9Zm2-10.25h-1.8a3.14,3.14,0,0,1,.68-2.19,2.22,2.22,0,0,1,1.68-.74,2.14,2.14,0,0,1,.89.17,3.36,3.36,0,0,1,.67.39l.54.39a.94.94,0,0,0,.53.16.67.67,0,0,0,.61-.3,1.43,1.43,0,0,0,.2-.8l1.78,0a3.17,3.17,0,0,1-.71,2.18,2.18,2.18,0,0,1-1.66.76,2.09,2.09,0,0,1-.91-.16,2.73,2.73,0,0,1-.65-.39,5.41,5.41,0,0,0-.52-.39.9.9,0,0,0-.55-.17.66.66,0,0,0-.56.28A1.27,1.27,0,0,0,243.13,64Zm32.15,8.7a8.27,8.27,0,0,1-.93,4.07,6.28,6.28,0,0,1-2.5,2.53,7.58,7.58,0,0,1-7.05,0,6.41,6.41,0,0,1-2.49-2.54,9.44,9.44,0,0,1,0-8.13,6.28,6.28,0,0,1,2.49-2.54,7.65,7.65,0,0,1,7.05,0,6.24,6.24,0,0,1,2.5,2.54A8.25,8.25,0,0,1,275.28,72.73Zm-3.6,0a6.27,6.27,0,0,0-.4-2.4,3,3,0,0,0-2.95-2,3.24,3.24,0,0,0-1.8.5,3.19,3.19,0,0,0-1.15,1.49,6.27,6.27,0,0,0-.4,2.4,6.34,6.34,0,0,0,.4,2.4,3,3,0,0,0,2.95,2,3.12,3.12,0,0,0,1.8-.51,3.16,3.16,0,0,0,1.15-1.48A6.34,6.34,0,0,0,271.68,72.73Z" transform="translate(-1.62 -8.74)"/></svg>