<svg width="278" height="85" viewBox="0 0 278 85" fill="none" xmlns="http://www.w3.org/2000/svg">
<path d="M11.7422 45.8672C10.2109 45.8672 8.82812 45.6641 7.59375 45.2578C6.35938 44.8672 5.29688 44.2969 4.40625 43.5469C3.5 42.7969 2.80469 41.9062 2.32031 40.875C1.85156 39.8438 1.61719 38.7031 1.61719 37.4531C1.61719 36.4062 1.78125 35.4219 2.10938 34.5C2.45312 33.5625 2.92969 32.75 3.53906 32.0625C4.14844 31.375 4.85938 30.8438 5.67188 30.4688C6.48438 30.0781 7.34375 29.8828 8.25 29.8828C9.375 29.8828 10.3203 30.1641 11.0859 30.7266C11.8516 31.2891 12.3281 32.0625 12.5156 33.0469C10.8438 33.0469 9.51562 33.4922 8.53125 34.3828C8.0625 34.8047 7.69531 35.3203 7.42969 35.9297C7.17969 36.5391 7.05469 37.2109 7.05469 37.9453C7.05469 39.3516 7.46094 40.4688 8.27344 41.2969C9.10156 42.1094 10.2109 42.5156 11.6016 42.5156C12.4297 42.5156 13.2031 42.3672 13.9219 42.0703C14.6406 41.7578 15.2656 41.3359 15.7969 40.8047C16.3281 40.2734 16.7344 39.6406 17.0156 38.9062C17.3125 38.1562 17.4609 37.3594 17.4609 36.5156C17.4609 34.9531 16.9297 33.3281 15.8672 31.6406C15.4453 30.9844 14.9766 30.3438 14.4609 29.7188C13.9609 29.0781 13.2578 28.2344 12.3516 27.1875C11.5391 26.25 10.8594 25.4375 10.3125 24.75C9.76562 24.0625 9.27344 23.3594 8.83594 22.6406C7.77344 20.9062 7.24219 19.2031 7.24219 17.5312C7.24219 16.2812 7.50781 15.125 8.03906 14.0625C8.57031 12.9844 9.32812 12.0469 10.3125 11.25C11.2969 10.4531 12.4453 9.83594 13.7578 9.39844C15.0703 8.96094 16.4844 8.74219 18 8.74219C20.5781 8.74219 22.6484 9.35156 24.2109 10.5703C24.9609 11.1641 25.5312 11.875 25.9219 12.7031C26.3281 13.5312 26.5312 14.4531 26.5312 15.4688C26.5312 16.7969 26.1953 17.8828 25.5234 18.7266C25.2109 19.1328 24.8203 19.4453 24.3516 19.6641C23.8984 19.8828 23.4141 19.9922 22.8984 19.9922C21.6953 19.9922 20.7188 19.4922 19.9688 18.4922C20.5781 18.0547 21.0547 17.4766 21.3984 16.7578C21.7578 16.0234 21.9375 15.2422 21.9375 14.4141C21.9375 13.3828 21.6328 12.5703 21.0234 11.9766C20.4141 11.3672 19.5781 11.0625 18.5156 11.0625C17.875 11.0625 17.2812 11.1797 16.7344 11.4141C16.2031 11.6484 15.75 11.9844 15.375 12.4219C14.9844 12.8594 14.6797 13.375 14.4609 13.9688C14.2578 14.5625 14.1562 15.2109 14.1562 15.9141C14.1562 16.9141 14.3906 17.875 14.8594 18.7969C15.3281 19.7188 16 20.6797 16.875 21.6797C17.6562 22.6016 18.5 23.5156 19.4062 24.4219C21.5156 26.6094 23.0078 28.7422 23.8828 30.8203C24.3984 32.0547 24.6562 33.4141 24.6562 34.8984C24.6562 36.4609 24.3359 37.9141 23.6953 39.2578C23.0547 40.5859 22.1406 41.7422 20.9531 42.7266C19.7656 43.7266 18.3828 44.5 16.8047 45.0469C15.2266 45.5938 13.5391 45.8672 11.7422 45.8672ZM35.3906 18.3984C34.875 18.3984 34.3828 18.3047 33.9141 18.1172C33.4453 17.9141 33.0391 17.6406 32.6953 17.2969C32.3516 16.9688 32.0781 16.5703 31.875 16.1016C31.6875 15.6328 31.5938 15.1406 31.5938 14.625C31.5938 14.1094 31.6875 13.6172 31.875 13.1484C32.0781 12.6797 32.3516 12.2656 32.6953 11.9062C33.0391 11.5469 33.4453 11.2734 33.9141 11.0859C34.3828 10.8828 34.875 10.7812 35.3906 10.7812C35.9062 10.7812 36.3984 10.8828 36.8672 11.0859C37.3359 11.2734 37.75 11.5469 38.1094 11.9062C38.4688 12.2656 38.7422 12.6797 38.9297 13.1484C39.1328 13.6172 39.2344 14.1094 39.2344 14.625C39.2344 15.1406 39.1328 15.6328 38.9297 16.1016C38.7422 16.5703 38.4688 16.9688 38.1094 17.2969C37.75 17.6406 37.3359 17.9141 36.8672 18.1172C36.3984 18.3047 35.9062 18.3984 35.3906 18.3984ZM32.1328 45.2812C30.6016 45.2812 29.3906 44.8281 28.5 43.9219C27.5 42.9219 27 41.4609 27 39.5391C27 38.6328 27.125 37.5859 27.375 36.3984L30.6328 21H37.5469L34.1016 37.3125C33.9766 37.7188 33.9141 38.2344 33.9141 38.8594C33.9141 39.5156 34.0625 39.9766 34.3594 40.2422C34.6719 40.5078 35.1719 40.6406 35.8594 40.6406C36.3281 40.6406 36.7812 40.5391 37.2188 40.3359C37.6719 40.1172 38.0859 39.8203 38.4609 39.4453C39.2266 38.6797 39.8047 37.6641 40.1953 36.3984H42.2109C41.3516 38.8203 40.2734 40.75 38.9766 42.1875C37.8828 43.3594 36.6484 44.2031 35.2734 44.7188C34.2734 45.0938 33.2266 45.2812 32.1328 45.2812ZM69.3984 45.2812C67.4141 45.2812 65.9453 44.7188 64.9922 43.5938C64.1641 42.625 63.75 41.3828 63.75 39.8672C63.75 39.1484 63.8359 38.3125 64.0078 37.3594C64.1953 36.4062 64.4688 35.1797 64.8281 33.6797C65.1875 32.1484 65.4531 30.9297 65.625 30.0234C65.8125 29.1016 65.9062 28.3047 65.9062 27.6328C65.9062 25.9922 65.3281 25.1719 64.1719 25.1719C63.3594 25.1719 62.6094 25.6016 61.9219 26.4609C61.3438 27.1953 60.8438 28.2422 60.4219 29.6016L57.1641 45H50.25L53.7656 28.4297C53.8594 28.0547 53.9062 27.6562 53.9062 27.2344C53.9062 26.5938 53.8047 26.1016 53.6016 25.7578C53.3359 25.3359 52.9531 25.125 52.4531 25.125C51.5469 25.125 50.7578 25.5625 50.0859 26.4375C49.4922 27.1875 48.9844 28.2422 48.5625 29.6016L45.3047 45H38.3906L43.4766 21H50.3906L49.875 23.4844C50.8125 22.4375 51.8359 21.6953 52.9453 21.2578C53.8203 20.9297 54.75 20.7656 55.7344 20.7656C57.0781 20.7656 58.1484 21.0781 58.9453 21.7031C59.8359 22.4062 60.4062 23.4688 60.6562 24.8906C61.6875 23.2969 62.875 22.1719 64.2188 21.5156C65.1719 21.0469 66.2109 20.8125 67.3359 20.8125C68.9453 20.8125 70.2188 21.2344 71.1562 22.0781C72.1562 23 72.6562 24.3828 72.6562 26.2266C72.6562 27.2734 72.4609 28.7188 72.0703 30.5625C71.9141 31.3281 71.7266 32.1016 71.5078 32.8828C71.1172 34.3828 70.7969 35.7656 70.5469 37.0312C70.4219 37.6875 70.3594 38.2188 70.3594 38.625C70.3594 39.2656 70.5 39.7656 70.7812 40.125C71.0781 40.4688 71.5781 40.6406 72.2812 40.6406C73.2344 40.6406 74.0391 40.25 74.6953 39.4688C75.1953 38.875 75.7344 37.8516 76.3125 36.3984H78.3281C77.1406 39.9141 75.6406 42.375 73.8281 43.7812C72.5469 44.7812 71.0703 45.2812 69.3984 45.2812ZM79.9688 19.2188H86.8828L86.1094 22.8281C87.7344 21.4531 89.6016 20.7656 91.7109 20.7656C93.5078 20.7656 94.8984 21.3125 95.8828 22.4062C97.0078 23.6875 97.5703 25.6641 97.5703 28.3359C97.5703 30.9141 97.2422 33.3359 96.5859 35.6016C95.7578 38.4922 94.5547 40.7344 92.9766 42.3281C91.0391 44.2969 88.6328 45.2812 85.7578 45.2812C84.6484 45.2812 83.7344 45.1094 83.0156 44.7656C82.4688 44.5156 82.0234 44.1172 81.6797 43.5703L79.1953 55.2656L71.9531 57L79.9688 19.2188ZM84.2812 41.1094C85.8281 41.1094 87.1562 40.3203 88.2656 38.7422C89.1406 37.5078 89.8438 35.7734 90.375 33.5391C90.7969 31.7422 91.0078 29.9609 91.0078 28.1953C91.0078 26.6172 90.7188 25.4922 90.1406 24.8203C89.7656 24.4141 89.25 24.2109 88.5938 24.2109C88.0156 24.2109 87.4297 24.4141 86.8359 24.8203C86.2422 25.2266 85.7266 25.8125 85.2891 26.5781L82.4531 40.0078C82.5625 40.3203 82.7656 40.5859 83.0625 40.8047C83.375 41.0078 83.7812 41.1094 84.2812 41.1094ZM103.523 45.2812C101.992 45.2812 100.781 44.8281 99.8906 43.9219C98.8906 42.9219 98.3906 41.4609 98.3906 39.5391C98.3906 38.6328 98.5156 37.5859 98.7656 36.3984L103.898 12.3516L111 11.3906L105.492 37.3125C105.367 37.7188 105.305 38.2344 105.305 38.8594C105.305 39.5156 105.453 39.9766 105.75 40.2422C106.062 40.5078 106.562 40.6406 107.25 40.6406C107.719 40.6406 108.172 40.5391 108.609 40.3359C109.062 40.1172 109.477 39.8203 109.852 39.4453C110.617 38.6797 111.195 37.6641 111.586 36.3984H113.602C112.742 38.8203 111.664 40.75 110.367 42.1875C109.273 43.3594 108.039 44.2031 106.664 44.7188C105.664 45.0938 104.617 45.2812 103.523 45.2812ZM118.477 45.2812C116.117 45.2812 114.297 44.6875 113.016 43.5C111.656 42.2344 110.977 40.2891 110.977 37.6641C110.977 36.6797 111.078 35.5859 111.281 34.3828C111.469 33.1797 111.758 31.9766 112.148 30.7734C112.586 29.4297 113.141 28.1562 113.812 26.9531C114.5 25.75 115.297 24.6875 116.203 23.7656C118.297 21.6406 120.875 20.5781 123.938 20.5781C125.891 20.5781 127.312 21.0469 128.203 21.9844C128.891 22.7188 129.234 23.7812 129.234 25.1719C129.234 26.5312 128.938 27.8125 128.344 29.0156C127.75 30.2031 126.93 31.2578 125.883 32.1797C124.836 33.0859 123.648 33.8125 122.32 34.3594C120.992 34.8906 119.617 35.2031 118.195 35.2969C118.117 36.1094 118.078 36.75 118.078 37.2188C118.078 38.7812 118.375 39.8594 118.969 40.4531C119.484 40.9844 120.344 41.25 121.547 41.25C123.281 41.25 124.867 40.7812 126.305 39.8438C126.914 39.4531 127.5 38.9922 128.062 38.4609C128.625 37.9141 129.281 37.2266 130.031 36.3984H131.672C130.156 38.9609 128.414 41 126.445 42.5156C124.023 44.3594 121.367 45.2812 118.477 45.2812ZM118.57 33C119.461 32.9375 120.328 32.6797 121.172 32.2266C122.016 31.7734 122.766 31.1797 123.422 30.4453C124.078 29.6953 124.594 28.8594 124.969 27.9375C125.344 27 125.531 26.0469 125.531 25.0781C125.531 24.4375 125.438 23.9531 125.25 23.625C125.078 23.2812 124.773 23.1094 124.336 23.1094C123.758 23.1094 123.172 23.3906 122.578 23.9531C122 24.5156 121.438 25.2891 120.891 26.2734C120.391 27.1953 119.938 28.2422 119.531 29.4141C119.125 30.5859 118.805 31.7812 118.57 33Z" fill="url(#paint0_linear_467_32)"/>
<path d="M186.152 20.36V14.2H162.7V45H169.476V33.076H184.172V26.916H169.476V20.36H186.152ZM205.083 27.972V20.976C201.123 20.8 198.923 22.912 197.559 26.168V21.416H190.871V45H197.559V36.288C197.559 30.656 200.287 27.972 204.731 27.972H205.083ZM230.617 33.868V33.78C230.617 27.092 227.009 20.976 219.133 20.976C212.269 20.976 207.473 26.52 207.473 33.252V33.34C207.473 40.556 212.709 45.528 219.793 45.528C224.061 45.528 227.229 43.856 229.429 41.128L225.601 37.74C223.753 39.456 222.125 40.16 219.881 40.16C216.889 40.16 214.777 38.576 214.117 35.54H230.529C230.573 34.924 230.617 34.528 230.617 33.868ZM224.105 31.36H214.029C214.557 28.324 216.361 26.344 219.133 26.344C221.949 26.344 223.709 28.368 224.105 31.36ZM248.845 44.032V38.664C247.877 39.192 246.777 39.5 245.545 39.5C244.049 39.5 243.389 38.752 243.389 37.212V27.136H248.933V21.416H243.389V15.388H236.701V21.416H233.885V27.136H236.701V38.312C236.701 43.768 239.473 45.396 243.565 45.396C245.809 45.396 247.437 44.868 248.845 44.032ZM275.218 33.868V33.78C275.218 27.092 271.61 20.976 263.734 20.976C256.87 20.976 252.074 26.52 252.074 33.252V33.34C252.074 40.556 257.31 45.528 264.394 45.528C268.662 45.528 271.83 43.856 274.03 41.128L270.202 37.74C268.354 39.456 266.726 40.16 264.482 40.16C261.49 40.16 259.378 38.576 258.718 35.54H275.13C275.174 34.924 275.218 34.528 275.218 33.868ZM268.706 31.36H258.63C259.158 28.324 260.962 26.344 263.734 26.344C266.55 26.344 268.31 28.368 268.706 31.36Z" fill="url(#paint1_linear_467_32)"/>
<path d="M130 37.5C132 35 135 33.9998 137.5 38.5C139.444 41.9997 141.5 45.4999 145.5 43.9999" stroke="url(#paint2_linear_467_32)" stroke-width="1.4"/>
<path fill-rule="evenodd" clip-rule="evenodd" d="M155.462 27.5C156.427 25.587 157 23.5038 157 21.5C157 15.1487 151.851 10 145.5 10C139.149 10 134 15.1487 134 21.5C134 24.2017 134.995 27.0476 136.601 29.4262L145.5 45L155.5 27.5H155.462Z" fill="url(#paint3_linear_467_32)"/>
<circle cx="145.5" cy="21.5" r="5.5" fill="white"/>
<path d="M6.24716 80H2.46875L7.37642 65.4545H12.0568L16.9645 80H13.1861L9.76989 69.1193H9.65625L6.24716 80ZM5.7429 74.2756H13.6406V76.946H5.7429V74.2756ZM32.207 80H26.8305V65.4545H32.1999C33.6819 65.4545 34.9579 65.7457 36.028 66.3281C37.1028 66.9058 37.9314 67.7391 38.5138 68.8281C39.0962 69.9124 39.3874 71.2098 39.3874 72.7202C39.3874 74.2353 39.0962 75.5374 38.5138 76.6264C37.9361 77.7154 37.1099 78.5511 36.0351 79.1335C34.9603 79.7112 33.6842 80 32.207 80ZM30.3462 77.0028H32.072C32.8864 77.0028 33.5753 76.8655 34.1388 76.5909C34.707 76.3116 35.1355 75.8594 35.4243 75.2344C35.7179 74.6046 35.8646 73.7666 35.8646 72.7202C35.8646 71.6738 35.7179 70.8404 35.4243 70.2202C35.1307 69.5952 34.6975 69.1454 34.1246 68.8707C33.5564 68.5914 32.8556 68.4517 32.0223 68.4517H30.3462V77.0028ZM49.7399 65.4545H54.0936L57.7868 74.4602H57.9572L61.6504 65.4545H66.0041V80H62.5808V71.0653H62.4601L58.9658 79.9077H56.7783L53.2839 71.0156H53.1632V80H49.7399V65.4545ZM80.0126 65.4545V80H76.4969V65.4545H80.0126ZM102.899 65.4545V80H99.9159L94.1276 71.6051H94.0352V80H90.5196V65.4545H93.5452L99.2696 73.8352H99.3903V65.4545H102.899ZM116.925 65.4545V80H113.409V65.4545H116.925ZM135.294 69.8153C135.247 69.2945 135.036 68.8897 134.662 68.6009C134.293 68.3073 133.765 68.1605 133.078 68.1605C132.624 68.1605 132.245 68.2197 131.942 68.3381C131.639 68.4564 131.412 68.6198 131.26 68.8281C131.109 69.0317 131.031 69.2661 131.026 69.5312C131.016 69.7491 131.059 69.9408 131.154 70.1065C131.253 70.2723 131.395 70.419 131.58 70.5469C131.769 70.67 131.996 70.7789 132.262 70.8736C132.527 70.9683 132.825 71.0511 133.157 71.1222L134.407 71.4062C135.126 71.5625 135.761 71.7708 136.31 72.0312C136.864 72.2917 137.328 72.6018 137.702 72.9616C138.081 73.3215 138.367 73.7358 138.561 74.2045C138.755 74.6733 138.855 75.1989 138.86 75.7812C138.855 76.6998 138.623 77.4882 138.164 78.1463C137.704 78.8045 137.044 79.3087 136.182 79.6591C135.325 80.0095 134.291 80.1847 133.078 80.1847C131.862 80.1847 130.801 80.0024 129.897 79.6378C128.992 79.2732 128.289 78.7192 127.787 77.9759C127.285 77.2325 127.027 76.2926 127.013 75.1562H130.38C130.408 75.625 130.533 76.0156 130.756 76.3281C130.979 76.6406 131.284 76.8774 131.672 77.0384C132.065 77.1993 132.52 77.2798 133.036 77.2798C133.509 77.2798 133.912 77.2159 134.243 77.0881C134.579 76.9602 134.837 76.7827 135.017 76.5554C135.197 76.3281 135.29 76.0677 135.294 75.7741C135.29 75.4995 135.204 75.2652 135.039 75.071C134.873 74.8722 134.617 74.7017 134.272 74.5597C133.931 74.4129 133.495 74.2779 132.965 74.1548L131.445 73.7997C130.185 73.5109 129.193 73.0445 128.469 72.4006C127.745 71.7519 127.385 70.8759 127.389 69.7727C127.385 68.8731 127.626 68.0848 128.114 67.4077C128.602 66.7306 129.276 66.2027 130.138 65.8239C131 65.4451 131.982 65.2557 133.086 65.2557C134.212 65.2557 135.19 65.4474 136.019 65.831C136.852 66.2098 137.498 66.7424 137.958 67.429C138.417 68.1155 138.651 68.911 138.661 69.8153H135.294ZM148.459 68.3097V65.4545H160.753V68.3097H156.343V80H152.877V68.3097H148.459ZM170.77 80V65.4545H176.779C177.868 65.4545 178.808 65.651 179.599 66.044C180.394 66.4323 181.007 66.991 181.438 67.7202C181.869 68.4446 182.084 69.304 182.084 70.2983C182.084 71.3068 181.864 72.1638 181.424 72.8693C180.983 73.5701 180.358 74.1051 179.549 74.4744C178.739 74.839 177.78 75.0213 176.672 75.0213H172.873V72.2514H176.019C176.549 72.2514 176.992 72.1828 177.347 72.0455C177.707 71.9034 177.979 71.6903 178.164 71.4062C178.349 71.1174 178.441 70.7481 178.441 70.2983C178.441 69.8485 178.349 69.4768 178.164 69.1832C177.979 68.8849 177.707 68.6624 177.347 68.5156C176.987 68.3641 176.545 68.2884 176.019 68.2884H174.286V80H170.77ZM178.959 73.3523L182.581 80H178.746L175.195 73.3523H178.959ZM195.459 80H191.68L196.588 65.4545H201.269L206.176 80H202.398L198.982 69.1193H198.868L195.459 80ZM194.955 74.2756H202.852V76.946H194.955V74.2756ZM228.562 70.7244H225.011C224.963 70.3598 224.866 70.0308 224.719 69.7372C224.573 69.4437 224.379 69.1927 224.137 68.9844C223.896 68.776 223.609 68.6174 223.278 68.5085C222.951 68.3949 222.589 68.3381 222.191 68.3381C221.486 68.3381 220.877 68.5109 220.366 68.8565C219.859 69.2022 219.469 69.7017 219.194 70.3551C218.924 71.0085 218.789 71.7992 218.789 72.7273C218.789 73.6932 218.926 74.5028 219.201 75.1562C219.48 75.8049 219.871 76.295 220.373 76.6264C220.879 76.9531 221.478 77.1165 222.17 77.1165C222.558 77.1165 222.911 77.0668 223.228 76.9673C223.55 76.8679 223.832 76.7235 224.073 76.5341C224.319 76.34 224.521 76.1056 224.677 75.831C224.838 75.5516 224.949 75.2367 225.011 74.8864L228.562 74.9077C228.5 75.5516 228.313 76.1861 228.001 76.8111C227.693 77.4361 227.269 78.0066 226.729 78.5227C226.19 79.0341 225.531 79.4413 224.755 79.7443C223.983 80.0473 223.098 80.1989 222.099 80.1989C220.782 80.1989 219.603 79.91 218.562 79.3324C217.525 78.75 216.706 77.9025 216.104 76.7898C215.503 75.6771 215.202 74.3229 215.202 72.7273C215.202 71.1269 215.508 69.7704 216.119 68.6577C216.729 67.545 217.556 66.6998 218.597 66.1222C219.639 65.5445 220.806 65.2557 222.099 65.2557C222.979 65.2557 223.794 65.3788 224.542 65.625C225.29 65.8665 225.948 66.2216 226.516 66.6903C227.085 67.1544 227.546 67.7249 227.901 68.402C228.256 69.0791 228.477 69.8532 228.562 70.7244ZM221.339 79.9219H222.731L222.617 80.5611C223.138 80.6368 223.555 80.8239 223.867 81.1222C224.18 81.4252 224.338 81.8182 224.343 82.3011C224.348 83.0398 223.995 83.6222 223.285 84.0483C222.579 84.4792 221.597 84.6946 220.337 84.6946L220.323 83.267C220.972 83.267 221.474 83.1937 221.829 83.0469C222.184 82.9001 222.369 82.6776 222.383 82.3793C222.397 82.1046 222.29 81.8845 222.063 81.7188C221.836 81.5578 221.483 81.4465 221.005 81.3849L221.339 79.9219ZM241.649 80H237.87L242.778 65.4545H247.458L252.366 80H248.588L245.171 69.1193H245.058L241.649 80ZM241.144 74.2756H249.042V76.946H241.144V74.2756ZM243.133 64.027L241.329 64.0199C241.329 63.054 241.556 62.3248 242.011 61.8324C242.47 61.34 243.031 61.0938 243.694 61.0938C244.04 61.0938 244.336 61.1506 244.582 61.2642C244.833 61.3731 245.055 61.5009 245.25 61.6477C245.444 61.7945 245.624 61.9247 245.789 62.0384C245.955 62.1473 246.133 62.2017 246.322 62.2017C246.597 62.2017 246.798 62.1023 246.926 61.9034C247.058 61.7045 247.127 61.437 247.132 61.1009L248.907 61.1222C248.898 62.0739 248.663 62.8007 248.204 63.3026C247.75 63.7997 247.196 64.053 246.542 64.0625C246.182 64.0672 245.877 64.0128 245.626 63.8991C245.38 63.7855 245.164 63.6553 244.98 63.5085C244.8 63.3617 244.627 63.2315 244.461 63.1179C244.296 63.0043 244.113 62.9474 243.914 62.9474C243.678 62.9474 243.488 63.0421 243.346 63.2315C243.204 63.4209 243.133 63.6861 243.133 64.027ZM275.277 72.7273C275.277 74.3277 274.969 75.6842 274.354 76.7969C273.738 77.9096 272.905 78.7547 271.854 79.3324C270.808 79.91 269.633 80.1989 268.331 80.1989C267.024 80.1989 265.848 79.9077 264.801 79.3253C263.755 78.7429 262.924 77.8977 262.308 76.7898C261.698 75.6771 261.392 74.3229 261.392 72.7273C261.392 71.1269 261.698 69.7704 262.308 68.6577C262.924 67.545 263.755 66.6998 264.801 66.1222C265.848 65.5445 267.024 65.2557 268.331 65.2557C269.633 65.2557 270.808 65.5445 271.854 66.1222C272.905 66.6998 273.738 67.545 274.354 68.6577C274.969 69.7704 275.277 71.1269 275.277 72.7273ZM271.683 72.7273C271.683 71.7803 271.549 70.9801 271.279 70.3267C271.013 69.6733 270.63 69.1785 270.128 68.8423C269.631 68.5062 269.032 68.3381 268.331 68.3381C267.635 68.3381 267.036 68.5062 266.534 68.8423C266.032 69.1785 265.647 69.6733 265.377 70.3267C265.111 70.9801 264.979 71.7803 264.979 72.7273C264.979 73.6742 265.111 74.4744 265.377 75.1278C265.647 75.7812 266.032 76.276 266.534 76.6122C267.036 76.9484 267.635 77.1165 268.331 77.1165C269.032 77.1165 269.631 76.9484 270.128 76.6122C270.63 76.276 271.013 75.7812 271.279 75.1278C271.549 74.4744 271.683 73.6742 271.683 72.7273Z" fill="#838B95"/>
<defs>
<linearGradient id="paint0_linear_467_32" x1="135.5" y1="10.5" x2="137.695" y2="59.0138" gradientUnits="userSpaceOnUse">
<stop offset="0.0989583" stop-color="#00114D"/>
<stop offset="1" stop-color="#0A6FED"/>
</linearGradient>
<linearGradient id="paint1_linear_467_32" x1="139" y1="12.5" x2="139" y2="52.5" gradientUnits="userSpaceOnUse">
<stop stop-color="#000E35"/>
<stop offset="0.936245" stop-color="#000E35"/>
</linearGradient>
<linearGradient id="paint2_linear_467_32" x1="134" y1="35.5" x2="139.5" y2="43.5" gradientUnits="userSpaceOnUse">
<stop stop-color="#05419E"/>
<stop offset="1" stop-color="#000D33"/>
</linearGradient>
<linearGradient id="paint3_linear_467_32" x1="145.5" y1="10" x2="145.5" y2="45" gradientUnits="userSpaceOnUse">
<stop stop-color="#0A6FED"/>
<stop offset="1" stop-color="#000A2D"/>
</linearGradient>
</defs>
</svg>
